<mxfile host="app.diagrams.net" modified="2021-07-20T11:03:14.029Z" agent="5.0 (Windows)" etag="05abOKBxnvY3Cask_Dm8" version="14.8.2" type="github">
  <diagram id="xyX6T4TqCvH5FMnQfC4e" name="Page-1">
    <mxGraphModel dx="1422" dy="1180" grid="0" gridSize="10" guides="1" tooltips="1" connect="1" arrows="1" fold="1" page="0" pageScale="1" pageWidth="827" pageHeight="1169" math="0" shadow="0">
      <root>
        <mxCell id="0" />
        <mxCell id="1" parent="0" />
        <mxCell id="Ve8CWqOaw4KuWsA7Q6VL-1" value="" style="edgeStyle=orthogonalEdgeStyle;orthogonalLoop=1;jettySize=auto;html=1;fontColor=#393C56;strokeWidth=4;fillColor=#F2CC8F;labelBackgroundColor=#F4F1DE;strokeColor=#CC99FF;entryX=0;entryY=0.5;entryDx=0;entryDy=0;entryPerimeter=0;" edge="1" parent="1" source="Ve8CWqOaw4KuWsA7Q6VL-2">
          <mxGeometry relative="1" as="geometry">
            <mxPoint x="207" y="233" as="targetPoint" />
          </mxGeometry>
        </mxCell>
        <mxCell id="Ve8CWqOaw4KuWsA7Q6VL-2" value="A" style="ellipse;whiteSpace=wrap;html=1;aspect=fixed;strokeColor=#9673a6;strokeWidth=1;fillColor=#e1d5e7;" vertex="1" parent="1">
          <mxGeometry x="120" y="208" width="50" height="50" as="geometry" />
        </mxCell>
        <mxCell id="Ve8CWqOaw4KuWsA7Q6VL-36" value="" style="edgeStyle=orthogonalEdgeStyle;orthogonalLoop=1;jettySize=auto;html=1;labelBackgroundColor=#F4F1DE;fontColor=#393C56;strokeColor=#CC0000;strokeWidth=2;fillColor=#f8cecc;" edge="1" parent="1" source="Ve8CWqOaw4KuWsA7Q6VL-4" target="Ve8CWqOaw4KuWsA7Q6VL-35">
          <mxGeometry relative="1" as="geometry" />
        </mxCell>
        <mxCell id="Ve8CWqOaw4KuWsA7Q6VL-4" value="START" style="ellipse;whiteSpace=wrap;html=1;strokeWidth=1;strokeColor=#b85450;fillColor=#f8cecc;" vertex="1" parent="1">
          <mxGeometry x="352" y="-63" width="120" height="80" as="geometry" />
        </mxCell>
        <mxCell id="Ve8CWqOaw4KuWsA7Q6VL-5" value="" style="edgeStyle=orthogonalEdgeStyle;orthogonalLoop=1;jettySize=auto;html=1;labelBackgroundColor=#F4F1DE;fontColor=#393C56;strokeColor=#CC0000;fillColor=#f8cecc;strokeWidth=2;" edge="1" parent="1" source="Ve8CWqOaw4KuWsA7Q6VL-6" target="Ve8CWqOaw4KuWsA7Q6VL-13">
          <mxGeometry relative="1" as="geometry" />
        </mxCell>
        <mxCell id="Ve8CWqOaw4KuWsA7Q6VL-6" value="Voltage is received" style="whiteSpace=wrap;html=1;fontColor=#393C56;strokeColor=#b85450;strokeWidth=1;fillColor=#f8cecc;" vertex="1" parent="1">
          <mxGeometry x="352" y="203" width="120" height="60" as="geometry" />
        </mxCell>
        <mxCell id="Ve8CWqOaw4KuWsA7Q6VL-7" value="Input the readings into neural network. Get SoC" style="whiteSpace=wrap;html=1;fontColor=#393C56;strokeColor=#b85450;strokeWidth=1;fillColor=#f8cecc;" vertex="1" parent="1">
          <mxGeometry x="352" y="489" width="120" height="60" as="geometry" />
        </mxCell>
        <mxCell id="Ve8CWqOaw4KuWsA7Q6VL-34" style="edgeStyle=orthogonalEdgeStyle;orthogonalLoop=1;jettySize=auto;html=1;exitX=1;exitY=0.5;exitDx=0;exitDy=0;entryX=0.5;entryY=0;entryDx=0;entryDy=0;entryPerimeter=0;labelBackgroundColor=#F4F1DE;fontColor=#393C56;strokeColor=#CC0000;strokeWidth=2;fillColor=#f8cecc;" edge="1" parent="1" source="Ve8CWqOaw4KuWsA7Q6VL-8" target="Ve8CWqOaw4KuWsA7Q6VL-11">
          <mxGeometry relative="1" as="geometry">
            <Array as="points">
              <mxPoint x="1012" y="388" />
              <mxPoint x="1012" y="-79" />
              <mxPoint x="249" y="-79" />
            </Array>
          </mxGeometry>
        </mxCell>
        <mxCell id="Ve8CWqOaw4KuWsA7Q6VL-8" value="" style="aspect=fixed;perimeter=ellipsePerimeter;html=1;align=center;shadow=0;dashed=0;spacingTop=3;image;image=img/lib/active_directory/internet_cloud.svg;fontColor=#393C56;strokeColor=#E07A5F;strokeWidth=1;fillColor=#F2CC8F;labelBackgroundColor=#F4F1DE;" vertex="1" parent="1">
          <mxGeometry x="791" y="325" width="200.71" height="126.44" as="geometry" />
        </mxCell>
        <mxCell id="Ve8CWqOaw4KuWsA7Q6VL-9" style="edgeStyle=orthogonalEdgeStyle;orthogonalLoop=1;jettySize=auto;html=1;labelBackgroundColor=#F4F1DE;fontColor=#393C56;strokeColor=#CC0000;fillColor=#f8cecc;strokeWidth=2;" edge="1" parent="1" target="Ve8CWqOaw4KuWsA7Q6VL-6">
          <mxGeometry relative="1" as="geometry">
            <mxPoint x="291" y="233.0999999999999" as="sourcePoint" />
          </mxGeometry>
        </mxCell>
        <mxCell id="Ve8CWqOaw4KuWsA7Q6VL-10" style="edgeStyle=orthogonalEdgeStyle;orthogonalLoop=1;jettySize=auto;html=1;exitX=1;exitY=0.8;exitDx=0;exitDy=0;exitPerimeter=0;entryX=0;entryY=0.5;entryDx=0;entryDy=0;labelBackgroundColor=#F4F1DE;fontColor=#393C56;strokeColor=#CC0000;strokeWidth=2;fillColor=#f8cecc;" edge="1" parent="1" source="Ve8CWqOaw4KuWsA7Q6VL-11" target="Ve8CWqOaw4KuWsA7Q6VL-14">
          <mxGeometry relative="1" as="geometry" />
        </mxCell>
        <mxCell id="Ve8CWqOaw4KuWsA7Q6VL-33" style="edgeStyle=orthogonalEdgeStyle;orthogonalLoop=1;jettySize=auto;html=1;exitX=0.5;exitY=1;exitDx=0;exitDy=0;exitPerimeter=0;entryX=0;entryY=0.5;entryDx=0;entryDy=0;labelBackgroundColor=#F4F1DE;fontColor=#393C56;strokeColor=#CC0000;strokeWidth=2;fillColor=#f8cecc;" edge="1" parent="1" source="Ve8CWqOaw4KuWsA7Q6VL-11" target="Ve8CWqOaw4KuWsA7Q6VL-28">
          <mxGeometry relative="1" as="geometry" />
        </mxCell>
        <mxCell id="Ve8CWqOaw4KuWsA7Q6VL-11" value="&lt;font style=&quot;font-size: 16px&quot; color=&quot;#FF6666&quot;&gt;Raspberry Pi&lt;/font&gt;" style="outlineConnect=0;dashed=0;verticalLabelPosition=bottom;verticalAlign=top;align=center;html=1;shape=mxgraph.aws3.hardware_board;fontColor=#393C56;strokeColor=#E07A5F;strokeWidth=1;fillColor=#FF6666;" vertex="1" parent="1">
          <mxGeometry x="207" y="179.75" width="84" height="100.5" as="geometry" />
        </mxCell>
        <mxCell id="Ve8CWqOaw4KuWsA7Q6VL-12" value="" style="edgeStyle=orthogonalEdgeStyle;orthogonalLoop=1;jettySize=auto;html=1;labelBackgroundColor=#F4F1DE;fontColor=#393C56;strokeColor=#CC0000;strokeWidth=2;fillColor=#f8cecc;" edge="1" parent="1" source="Ve8CWqOaw4KuWsA7Q6VL-13" target="Ve8CWqOaw4KuWsA7Q6VL-8">
          <mxGeometry relative="1" as="geometry" />
        </mxCell>
        <mxCell id="Ve8CWqOaw4KuWsA7Q6VL-13" value="Send voltage to cloud" style="whiteSpace=wrap;html=1;fontColor=#393C56;strokeColor=#b85450;strokeWidth=1;fillColor=#f8cecc;" vertex="1" parent="1">
          <mxGeometry x="531" y="202.9999999999999" width="120" height="60" as="geometry" />
        </mxCell>
        <mxCell id="Ve8CWqOaw4KuWsA7Q6VL-14" value="Current is received" style="whiteSpace=wrap;html=1;fontColor=#393C56;strokeColor=#b85450;strokeWidth=1;fillColor=#f8cecc;" vertex="1" parent="1">
          <mxGeometry x="352" y="303" width="120" height="60" as="geometry" />
        </mxCell>
        <mxCell id="Ve8CWqOaw4KuWsA7Q6VL-15" value="" style="edgeStyle=orthogonalEdgeStyle;orthogonalLoop=1;jettySize=auto;html=1;labelBackgroundColor=#F4F1DE;fontColor=#393C56;strokeColor=#CC0000;fillColor=#f8cecc;strokeWidth=2;" edge="1" parent="1" target="Ve8CWqOaw4KuWsA7Q6VL-17">
          <mxGeometry relative="1" as="geometry">
            <mxPoint x="472" y="331" as="sourcePoint" />
          </mxGeometry>
        </mxCell>
        <mxCell id="Ve8CWqOaw4KuWsA7Q6VL-16" value="" style="edgeStyle=orthogonalEdgeStyle;orthogonalLoop=1;jettySize=auto;html=1;labelBackgroundColor=#F4F1DE;fontColor=#393C56;strokeColor=#CC0000;strokeWidth=2;fillColor=#f8cecc;" edge="1" parent="1" source="Ve8CWqOaw4KuWsA7Q6VL-17" target="Ve8CWqOaw4KuWsA7Q6VL-8">
          <mxGeometry relative="1" as="geometry">
            <mxPoint x="696.0002790755698" y="331.0999999999999" as="targetPoint" />
          </mxGeometry>
        </mxCell>
        <mxCell id="Ve8CWqOaw4KuWsA7Q6VL-17" value="Send current to cloud" style="whiteSpace=wrap;html=1;fontColor=#393C56;strokeColor=#b85450;strokeWidth=1;fillColor=#f8cecc;" vertex="1" parent="1">
          <mxGeometry x="531" y="300.9999999999999" width="120" height="60" as="geometry" />
        </mxCell>
        <mxCell id="Ve8CWqOaw4KuWsA7Q6VL-18" style="edgeStyle=orthogonalEdgeStyle;orthogonalLoop=1;jettySize=auto;html=1;entryX=0;entryY=0.5;entryDx=0;entryDy=0;labelBackgroundColor=#F4F1DE;fontColor=#393C56;strokeColor=#CC0000;strokeWidth=2;fillColor=#f8cecc;exitX=0.5;exitY=1;exitDx=0;exitDy=0;exitPerimeter=0;" edge="1" parent="1" source="Ve8CWqOaw4KuWsA7Q6VL-11" target="Ve8CWqOaw4KuWsA7Q6VL-20">
          <mxGeometry relative="1" as="geometry">
            <mxPoint x="210" y="357" as="sourcePoint" />
          </mxGeometry>
        </mxCell>
        <mxCell id="Ve8CWqOaw4KuWsA7Q6VL-19" value="" style="edgeStyle=orthogonalEdgeStyle;orthogonalLoop=1;jettySize=auto;html=1;labelBackgroundColor=#F4F1DE;fontColor=#393C56;strokeColor=#CC0000;strokeWidth=2;fillColor=#f8cecc;" edge="1" parent="1" source="Ve8CWqOaw4KuWsA7Q6VL-20" target="Ve8CWqOaw4KuWsA7Q6VL-7">
          <mxGeometry relative="1" as="geometry" />
        </mxCell>
        <mxCell id="Ve8CWqOaw4KuWsA7Q6VL-20" value="Temperature is received" style="whiteSpace=wrap;html=1;fontColor=#393C56;strokeColor=#b85450;strokeWidth=1;fillColor=#f8cecc;" vertex="1" parent="1">
          <mxGeometry x="352" y="399.85" width="120" height="60" as="geometry" />
        </mxCell>
        <mxCell id="Ve8CWqOaw4KuWsA7Q6VL-21" value="" style="edgeStyle=orthogonalEdgeStyle;orthogonalLoop=1;jettySize=auto;html=1;labelBackgroundColor=#F4F1DE;fontColor=#393C56;strokeColor=#CC0000;fillColor=#f8cecc;strokeWidth=2;" edge="1" parent="1" target="Ve8CWqOaw4KuWsA7Q6VL-23">
          <mxGeometry relative="1" as="geometry">
            <mxPoint x="472" y="427.8499999999999" as="sourcePoint" />
          </mxGeometry>
        </mxCell>
        <mxCell id="Ve8CWqOaw4KuWsA7Q6VL-22" value="" style="edgeStyle=orthogonalEdgeStyle;orthogonalLoop=1;jettySize=auto;html=1;labelBackgroundColor=#F4F1DE;fontColor=#393C56;strokeColor=#CC0000;strokeWidth=2;fillColor=#f8cecc;entryX=0;entryY=0.5;entryDx=0;entryDy=0;" edge="1" parent="1" source="Ve8CWqOaw4KuWsA7Q6VL-23" target="Ve8CWqOaw4KuWsA7Q6VL-8">
          <mxGeometry relative="1" as="geometry">
            <mxPoint x="696.0000697687306" y="427.9000000000001" as="targetPoint" />
            <Array as="points">
              <mxPoint x="723" y="428" />
              <mxPoint x="723" y="388" />
            </Array>
          </mxGeometry>
        </mxCell>
        <mxCell id="Ve8CWqOaw4KuWsA7Q6VL-23" value="Send temperature to cloud" style="whiteSpace=wrap;html=1;fontColor=#393C56;strokeColor=#b85450;strokeWidth=1;fillColor=#f8cecc;" vertex="1" parent="1">
          <mxGeometry x="531" y="397.8499999999999" width="120" height="60" as="geometry" />
        </mxCell>
        <mxCell id="Ve8CWqOaw4KuWsA7Q6VL-24" value="" style="edgeStyle=orthogonalEdgeStyle;orthogonalLoop=1;jettySize=auto;html=1;labelBackgroundColor=#F4F1DE;fontColor=#393C56;strokeColor=#CC0000;fillColor=#f8cecc;strokeWidth=2;" edge="1" parent="1" target="Ve8CWqOaw4KuWsA7Q6VL-26">
          <mxGeometry relative="1" as="geometry">
            <mxPoint x="472" y="519" as="sourcePoint" />
          </mxGeometry>
        </mxCell>
        <mxCell id="Ve8CWqOaw4KuWsA7Q6VL-25" style="edgeStyle=orthogonalEdgeStyle;orthogonalLoop=1;jettySize=auto;html=1;exitX=1;exitY=0.5;exitDx=0;exitDy=0;labelBackgroundColor=#F4F1DE;fontColor=#393C56;strokeColor=#CC0000;strokeWidth=2;fillColor=#f8cecc;" edge="1" parent="1" source="Ve8CWqOaw4KuWsA7Q6VL-26">
          <mxGeometry relative="1" as="geometry">
            <mxPoint x="845" y="441" as="targetPoint" />
          </mxGeometry>
        </mxCell>
        <mxCell id="Ve8CWqOaw4KuWsA7Q6VL-26" value="Send SoC to cloud" style="whiteSpace=wrap;html=1;fontColor=#393C56;strokeColor=#b85450;strokeWidth=1;fillColor=#f8cecc;" vertex="1" parent="1">
          <mxGeometry x="531" y="489" width="120" height="60" as="geometry" />
        </mxCell>
        <mxCell id="Ve8CWqOaw4KuWsA7Q6VL-28" value="Receive respective communication code" style="whiteSpace=wrap;html=1;fontColor=#393C56;strokeColor=#b85450;strokeWidth=1;fillColor=#f8cecc;" vertex="1" parent="1">
          <mxGeometry x="350" y="578" width="120" height="60" as="geometry" />
        </mxCell>
        <mxCell id="Ve8CWqOaw4KuWsA7Q6VL-29" value="" style="edgeStyle=orthogonalEdgeStyle;orthogonalLoop=1;jettySize=auto;html=1;labelBackgroundColor=#F4F1DE;fontColor=#393C56;strokeColor=#CC0000;fillColor=#f8cecc;strokeWidth=2;" edge="1" parent="1" target="Ve8CWqOaw4KuWsA7Q6VL-31">
          <mxGeometry relative="1" as="geometry">
            <mxPoint x="472" y="610.5999999999999" as="sourcePoint" />
          </mxGeometry>
        </mxCell>
        <mxCell id="Ve8CWqOaw4KuWsA7Q6VL-32" style="edgeStyle=orthogonalEdgeStyle;rounded=1;orthogonalLoop=1;jettySize=auto;html=1;fontColor=#393C56;strokeColor=#CC0000;strokeWidth=2;fillColor=#f8cecc;labelBackgroundColor=#F4F1DE;" edge="1" parent="1" source="Ve8CWqOaw4KuWsA7Q6VL-31" target="Ve8CWqOaw4KuWsA7Q6VL-8">
          <mxGeometry relative="1" as="geometry" />
        </mxCell>
        <mxCell id="Ve8CWqOaw4KuWsA7Q6VL-31" value="Send code accordingly" style="whiteSpace=wrap;html=1;fontColor=#393C56;strokeColor=#b85450;strokeWidth=1;fillColor=#f8cecc;" vertex="1" parent="1">
          <mxGeometry x="531" y="580.5999999999999" width="120" height="60" as="geometry" />
        </mxCell>
        <mxCell id="Ve8CWqOaw4KuWsA7Q6VL-39" value="" style="edgeStyle=orthogonalEdgeStyle;orthogonalLoop=1;jettySize=auto;html=1;labelBackgroundColor=#F4F1DE;fontColor=#393C56;strokeColor=#CC99FF;strokeWidth=4;fillColor=#F2CC8F;" edge="1" parent="1" source="Ve8CWqOaw4KuWsA7Q6VL-35" target="Ve8CWqOaw4KuWsA7Q6VL-38">
          <mxGeometry relative="1" as="geometry" />
        </mxCell>
        <mxCell id="Ve8CWqOaw4KuWsA7Q6VL-35" value="Send starting code to arduino" style="whiteSpace=wrap;html=1;strokeColor=#b85450;strokeWidth=1;fillColor=#f8cecc;" vertex="1" parent="1">
          <mxGeometry x="352" y="107" width="120" height="60" as="geometry" />
        </mxCell>
        <mxCell id="Ve8CWqOaw4KuWsA7Q6VL-38" value="X" style="ellipse;whiteSpace=wrap;html=1;aspect=fixed;strokeColor=#9673a6;strokeWidth=1;fillColor=#e1d5e7;" vertex="1" parent="1">
          <mxGeometry x="505" y="112" width="50" height="50" as="geometry" />
        </mxCell>
      </root>
    </mxGraphModel>
  </diagram>
</mxfile>
